<?xml version="1.0" encoding="utf-8"?>
<!-- Generator: Adobe Illustrator 28.4.1, SVG Export Plug-In . SVG Version: 6.00 Build 0)  -->
<svg version="1.0" id="katman_1" xmlns="http://www.w3.org/2000/svg" xmlns:xlink="http://www.w3.org/1999/xlink" x="0px" y="0px"
	 viewBox="0 0 392.47 392.46" style="enable-background:new 0 0 392.47 392.46;" xml:space="preserve">
<style type="text/css">
	.st0{fill:#4C00FF;}
	.st1{fill:#FF5252;}
	.st2{fill:#CBC2FF;}
</style>
<path class="st0" d="M392.45,129.84C392.45,58.1,333.69,0,261.14,0c-72.55,0-131.31,58.1-131.31,129.83"/>
<path class="st1" d="M392.47,129.84C392.47,58.1,334.37,0,262.63,0v129.83H392.47z"/>
<path class="st0" d="M262.63,392.46c71.73,0,129.83-58.76,129.83-131.31s-58.1-131.31-129.83-131.31"/>
<path class="st2" d="M262.63,392.45c71.73,0,129.83-58.1,129.83-129.84H262.63V392.45z"/>
<path class="st0" d="M0.01,262.62c0,71.73,58.76,129.84,131.31,129.84c72.55,0,131.31-58.1,131.31-129.84"/>
<path class="st2" d="M0,262.62c0,71.73,58.1,129.84,129.83,129.84V262.62H0z"/>
<path class="st0" d="M129.83,0C58.1,0,0,58.76,0,131.31c0,72.55,58.1,131.31,129.83,131.31"/>
<path class="st2" d="M129.83,0C58.1,0,0,58.1,0,129.84h129.83V0z"/>
</svg>
